Ground reaction force (.MOT) by Lee-Son Toolkit																		
nRows=144																		
nColumns=19																		
																		
name T_01_fixed_grf.mot																		
datacolumns 19																		
datarows 144																		
range 2.5 2.643																		
endheader																		
time	1_ground_force_vx	1_ground_force_vy	1_ground_force_vz	1_ground_force_px	1_ground_force_py	1_ground_force_pz	2_ground_force_vx	2_ground_force_vy	2_ground_force_vz	2_ground_force_px	2_ground_force_py	2_ground_force_pz	1_ground_torque_x	1_ground_torque_y	1_ground_torque_z	2_ground_torque_x	2_ground_torque_y	2_ground_torque_z
2.5	0	0	0	0	0	0	6.679	-33.0123	-9.33081	0.0901323	0	0.122139	0	0	0	0	-3.47718	0
2.501	0	0	0	0	0	0	6.90446	-32.8382	-8.93525	0.0932568	0	0.120514	0	0	0	0	-3.47566	0
2.502	0	0	0	0	0	0	6.99434	-32.6712	-9.24386	0.0959738	0	0.121552	0	0	0	0	-3.5242	0
2.503	0	0	0	0	0	0	6.63803	-33.1847	-9.19914	0.093783	0	0.118428	0	0	0	0	-3.4514	0
2.504	0	0	0	0	0	0	6.90429	-32.4947	-9.15812	0.0936299	0	0.121455	0	0	0	0	-3.51449	0
2.505	0	0	0	0	0	0	6.8174	-32.3207	-9.1584	0.0960317	0	0.119699	0	0	0	0	-3.51316	0
2.506	0	0	0	0	0	0	6.95147	-32.1504	-9.20259	0.0975645	0	0.120402	0	0	0	0	-3.54279	0
2.507	0	0	0	0	0	0	6.81311	-33.3576	-9.06974	0.0896115	0	0.1182	0	0	0	0	-3.45146	0
2.508	0	0	0	0	0	0	6.72671	-33.0101	-9.0239	0.0929944	0	0.118813	0	0	0	0	-3.45419	0
2.509	0	0	0	0	0	0	6.6835	-32.145	-9.15622	0.0955315	0	0.121558	0	0	0	0	-3.50593	0
2.51	0	0	0	0	0	0	6.94694	-32.8422	-9.24595	0.0914289	0	0.120281	0	0	0	0	-3.50982	0
2.511	0	0	0	0	0	0	7.08345	-32.1514	-9.20407	0.0956007	0	0.119165	0	0	0	0	-3.55898	0
2.512	0	0	0	0	0	0	6.81659	-32.6663	-9.11151	0.0950387	0	0.119588	0	0	0	0	-3.4906	0
2.513	0	0	0	0	0	0	6.81769	-33.1861	-9.02088	0.0964606	0	0.120002	0	0	0	0	-3.45594	0
2.514	0	0	0	0	0	0	6.72623	-32.8409	-9.33302	0.0934677	0	0.119818	0	0	0	0	-3.49175	0
2.515	0	0	0	0	0	0	6.94794	-32.1485	-9.15946	0.092765	0	0.123952	0	0	0	0	-3.53832	0
2.516	0	0	0	0	0	0	6.68203	-32.4939	-9.33362	0.0939122	0	0.121684	0	0	0	0	-3.50444	0
2.517	0	0	0	0	0	0	7.17032	-33.0161	-8.98815	0.0912286	0	0.116934	0	0	0	0	-3.50323	0
2.518	0	0	0	0	0	0	7.03657	-32.4977	-9.24992	0.0922508	0	0.121539	0	0	0	0	-3.53905	0
2.519	0	0	0	0	0	0	6.85773	-32.4962	-9.37697	0.0919075	0	0.124129	0	0	0	0	-3.52965	0
2.52	0	0	0	0	0	0	6.77104	-33.3623	-9.33394	0.0936851	0	0.118556	0	0	0	0	-3.47081	0
2.521	0	0	0	0	0	0	6.8176	-32.3194	-9.02314	0.0966303	0	0.123174	0	0	0	0	-3.50031	0
2.522	0	0	0	0	0	0	7.08308	-32.1499	-9.06835	0.0956024	0	0.123871	0	0	0	0	-3.54596	0
2.523	0	0	0	0	0	0	6.90541	-32.1498	-9.24543	0.095826	0	0.122881	0	0	0	0	-3.54135	0
2.524	0	0	0	0	0	0	6.99454	-31.8038	-9.20281	0.0961355	0	0.123529	0	0	0	0	-3.56703	0
2.525	0	0	0	0	0	0	7.03712	-32.4994	-9.37799	0.0940497	0	0.121735	0	0	0	0	-3.55123	0
2.526	0	0	0	0	0	0	6.81734	-33.3631	-9.28655	0.0965302	0	0.118536	0	0	0	0	-3.47182	0
2.527	0	0	0	0	0	0	6.94895	-33.1926	-9.37842	0.0945158	0	0.120402	0	0	0	0	-3.50447	0
2.528	0	0	0	0	0	0	6.63787	-32.3198	-9.33249	0.0944759	0	0.122338	0	0	0	0	-3.50812	0
2.529	0	0	0	0	0	0	7.12789	-32.8429	-9.02368	0.0953244	0	0.118257	0	0	0	0	-3.51046	0
2.53	0	0	0	0	0	0	7.12953	-32.1542	-9.24708	0.098518	0	0.121677	0	0	0	0	-3.5686	0
2.531	0	0	0	0	0	0	6.90261	-33.0154	-9.28923	0.0915986	0	0.119125	0	0	0	0	-3.49971	0
2.532	0	0	0	0	0	0	6.72847	-33.5301	-8.93414	0.0950092	0	0.117489	0	0	0	0	-3.42063	0
2.533	0	0	0	0	0	0	6.77091	-32.8406	-9.24604	0.0934054	0	0.119703	0	0	0	0	-3.48892	0
2.534	0	0	0	0	0	0	6.90517	-32.1514	-9.33772	0.0951983	0	0.122364	0	0	0	0	-3.55013	0
2.535	0	0	0	0	0	0	6.68348	-33.0106	-9.06982	0.0942104	0	0.116504	0	0	0	0	-3.45337	0
2.536	0	0	0	0	0	0	6.81573	-32.6706	-9.42073	0.0950182	0	0.121167	0	0	0	0	-3.51959	0
2.537	0	0	0	0	0	0	6.50452	-32.4884	-9.15485	0.093574	0	0.12087	0	0	0	0	-3.4663	0
2.538	0	0	0	0	0	0	6.94931	-32.1476	-9.0721	0.0939687	0	0.121415	0	0	0	0	-3.53015	0
2.539	0	0	0	0	0	0	6.99527	-31.9767	-9.15806	0.0968328	0	0.121597	0	0	0	0	-3.5533	0
2.54	0	0	0	0	0	0	6.94569	-33.1911	-9.42149	0.090475	0	0.121018	0	0	0	0	-3.5082	0
2.541	0	0	0	0	0	0	6.90722	-31.9775	-9.24693	0.0981344	0	0.122329	0	0	0	0	-3.55107	0
2.542	0	0	0	0	0	0	7.07966	-32.8472	-9.46876	0.0912418	0	0.119949	0	0	0	0	-3.54643	0
2.543	0	0	0	0	0	0	7.08372	-32.6742	-9.37599	0.0970474	0	0.119333	0	0	0	0	-3.54733	0
2.544	0	0	0	0	0	0	6.90357	-33.1882	-9.20531	0.0916872	0	0.116032	0	0	0	0	-3.48321	0
2.545	0	0	0	0	0	0	6.81852	-32.4951	-9.15661	0.0978879	0	0.120892	0	0	0	0	-3.50402	0
2.546	0	0	0	0	0	0	6.64048	-32.665	-9.11184	0.0970169	0	0.120202	0	0	0	0	-3.46959	0
2.547	0	0	0	0	0	0	6.94706	-33.0193	-9.50844	0.0927047	0	0.120002	0	0	0	0	-3.52536	0
2.548	0	0	0	0	0	0	6.7694	-33.1869	-9.28993	0.0912883	0	0.117918	0	0	0	0	-3.47532	0
2.549	0	0	0	0	0	0	6.90442	-33.0139	-9.11306	0.0933479	0	0.118328	0	0	0	0	-3.48351	0
2.55	0	0	0	0	0	0	6.90481	-33.0151	-9.20167	0.0939336	0	0.116665	0	0	0	0	-3.4918	0
2.551	0	0	0	0	0	0	7.30374	-33.0209	-9.20513	0.0928256	0	0.117231	0	0	0	0	-3.5392	0
2.552	0	0	0	0	0	0	6.90562	-31.974	-9.06845	0.0957469	0	0.123927	0	0	0	0	-3.5338	0
2.553	0	0	0	0	0	0	7.1248	-32.8447	-9.24898	0.0911979	0	0.117887	0	0	0	0	-3.53125	0
2.554	0	0	0	0	0	0	6.90383	-33.0145	-9.20091	0.0927742	0	0.11725	0	0	0	0	-3.49165	0
2.555	0	0	0	0	0	0	6.77319	-32.4941	-9.15631	0.0967591	0	0.122088	0	0	0	0	-3.49858	0
2.556	0	0	0	0	0	0	6.8177	-32.1491	-9.20254	0.0971168	0	0.124046	0	0	0	0	-3.52659	0
2.557	0	0	0	0	0	0	6.99423	-32.1496	-9.15918	0.0951144	0	0.120932	0	0	0	0	-3.54392	0
2.558	0	0	0	0	0	0	6.90386	-32.6664	-9.06993	0.0925574	0	0.120101	0	0	0	0	-3.49718	0
2.559	0	0	0	0	0	0	6.81605	-33.1858	-9.06959	0.0935496	0	0.117663	0	0	0	0	-3.46035	0
2.56	0	0	0	0	0	0	6.9483	-33.0159	-9.24407	0.0932986	0	0.118495	0	0	0	0	-3.50091	0
2.561	0	0	0	0	0	0	6.7291	-31.971	-8.97885	0.0971812	0	0.125055	0	0	0	0	-3.50365	0
2.562	0	0	0	0	0	0	6.90554	-32.324	-9.33376	0.0959214	0	0.119924	0	0	0	0	-3.54053	0
2.563	0	0	0	0	0	0	7.48239	-32.8502	-9.15869	0.0948442	0	0.120188	0	0	0	0	-3.56515	0
2.564	0	0	0	0	0	0	7.03697	-32.6733	-9.42065	0.094149	0	0.121756	0	0	0	0	-3.54602	0
2.565	0	0	0	0	0	0	6.85977	-33.1857	-9.06748	0.0929329	0	0.117666	0	0	0	0	-3.46533	0
2.566	0	0	0	0	0	0	6.7715	-32.3224	-9.37813	0.0948973	0	0.120576	0	0	0	0	-3.52861	0
2.567	0	0	0	0	0	0	6.90273	-32.4952	-9.28708	0.0924681	0	0.122226	0	0	0	0	-3.52662	0
2.568	0	0	0	0	0	0	6.817	-33.3603	-9.11074	0.0953816	0	0.118309	0	0	0	0	-3.45566	0
2.569	0	0	0	0	0	0	6.81316	-33.0119	-9.15845	0.0899622	0	0.118352	0	0	0	0	-3.47705	0
2.57	0	0	0	0	0	0	7.03797	-32.8462	-9.33405	0.0948188	0	0.120416	0	0	0	0	-3.52884	0
2.571	0	0	0	0	0	0	6.81551	-32.8441	-9.4681	0.0939331	0	0.117001	0	0	0	0	-3.51503	0
2.572	0	0	0	0	0	0	7.03614	-33.0146	-9.0721	0.0908362	0	0.118241	0	0	0	0	-3.4953	0
2.573	0	0	0	0	0	0	6.86092	-32.4958	-9.28549	0.0960841	0	0.121057	0	0	0	0	-3.5214	0
2.574	0	0	0	0	0	0	6.90618	-31.8047	-9.33365	0.0974597	0	0.12433	0	0	0	0	-3.56887	0
2.575	0	0	0	0	0	0	6.90337	-32.4948	-9.19977	0.0930466	0	0.123318	0	0	0	0	-3.51842	0
2.576	0	0	0	0	0	0	6.90403	-33.7084	-9.15824	0.0925692	0	0.117126	0	0	0	0	-3.45315	0
2.577	0	0	0	0	0	0	6.99209	-32.8447	-9.3325	0.0931277	0	0.121599	0	0	0	0	-3.52331	0
2.578	0	0	0	0	0	0	6.81816	-32.6679	-9.15525	0.0973879	0	0.119662	0	0	0	0	-3.49492	0
2.579	0	0	0	0	0	0	6.90638	-32.8397	-8.98065	0.0955953	0	0.118203	0	0	0	0	-3.48018	0
2.58	0	0	0	0	0	0	6.99337	-32.8452	-9.33181	0.094888	0	0.12102	0	0	0	0	-3.52337	0
2.581	0	0	0	0	0	0	6.86041	-32.6685	-9.20223	0.0943665	0	0.120879	0	0	0	0	-3.50441	0
2.582	0	0	0	0	0	0	6.90914	-33.0183	-9.24027	0.100929	0	0.119159	0	0	0	0	-3.49581	0
2.583	0	0	0	0	0	0	6.95215	-32.1502	-9.15635	0.0987681	0	0.121579	0	0	0	0	-3.53851	0
2.584	0	0	0	0	0	0	6.98972	-33.0194	-9.5536	0.0903209	0	0.119442	0	0	0	0	-3.53469	0
2.585	0	0	0	0	0	0	6.90199	-34.401	-9.19902	0.0901856	0	0.115407	0	0	0	0	-3.4235	0
2.586	0	0	0	0	0	0	6.90315	-32.847	-9.59965	0.0932258	0	0.119541	0	0	0	0	-3.53775	0
2.587	0	0	0	0	0	0	6.81631	-31.976	-9.28951	0.0958423	0	0.125429	0	0	0	0	-3.54417	0
2.588	0	0	0	0	0	0	6.81777	-32.3217	-9.20002	0.0972252	0	0.121586	0	0	0	0	-3.51722	0
2.589	0	0	0	0	0	0	6.90411	-32.4957	-9.24627	0.0936312	0	0.120964	0	0	0	0	-3.5229	0
2.59	0	0	0	0	0	0	6.68571	-32.4923	-9.112	0.0980728	0	0.119038	0	0	0	0	-3.48394	0
2.591	0	0	0	0	0	0	6.77259	-32.1495	-9.33379	0.0965887	0	0.122999	0	0	0	0	-3.53374	0
2.592	0	0	0	0	0	0	6.81746	-32.6662	-9.06676	0.0962155	0	0.120142	0	0	0	0	-3.48655	0
2.593	0	0	0	0	0	0	6.99986	-31.8067	-9.19951	0.104002	0	0.122987	0	0	0	0	-3.56728	0
2.594	0	0	0	0	0	0	6.90356	-32.8425	-9.28769	0.0932528	0	0.120359	0	0	0	0	-3.50865	0
2.595	0	0	0	0	0	0	6.77193	-32.8418	-9.24221	0.0957451	0	0.123899	0	0	0	0	-3.48869	0
2.596	0	0	0	0	0	0	6.95103	-31.8034	-9.15528	0.0980116	0	0.126572	0	0	0	0	-3.55714	0
2.597	0	0	0	0	0	0	6.9929	-33.19	-9.2447	0.0933379	0	0.117293	0	0	0	0	-3.49741	0
2.598	0	0	0	0	0	0	6.72583	-32.4911	-9.10887	0.0932839	0	0.125026	0	0	0	0	-3.48855	0
2.599	0	0	0	0	0	0	6.94846	-32.8406	-9.11433	0.0926132	0	0.117149	0	0	0	0	-3.49778	0
2.6	0	0	0	0	0	0	6.64	-32.3191	-9.16278	0.09563	0	0.119681	0	0	0	0	-3.49224	0
2.601	0	0	0	0	0	0	6.72984	-32.3227	-9.33037	0.0991288	0	0.121776	0	0	0	0	-3.519	0
2.602	0	0	0	0	0	0	6.90412	-33.5345	-9.15558	0.0930662	0	0.117155	0	0	0	0	-3.46147	0
2.603	0	0	0	0	0	0	6.68083	-33.5303	-9.15306	0.0916381	0	0.117738	0	0	0	0	-3.43533	0
2.604	0	0	0	0	0	0	6.68442	-31.7977	-9.06933	0.0965546	0	0.122757	0	0	0	0	-3.51622	0
2.605	0	0	0	0	0	0	6.94851	-33.0198	-9.50857	0.0944565	0	0.11824	0	0	0	0	-3.52558	0
2.606	0	0	0	0	0	0	6.86224	-32.8393	-8.97924	0.0962384	0	0.119403	0	0	0	0	-3.47483	0
2.607	0	0	0	0	0	0	6.77333	-33.0119	-9.02417	0.0958484	0	0.11765	0	0	0	0	-3.45977	0
2.608	0	0	0	0	0	0	6.90752	-31.9781	-9.28734	0.099354	0	0.12363	0	0	0	0	-3.55505	0
2.609	0	0	0	0	0	0	6.81507	-33.1878	-9.24556	0.0929664	0	0.118466	0	0	0	0	-3.4766	0
2.61	0	0	0	0	0	0	6.95036	-32.4958	-9.11338	0.0959366	0	0.12202	0	0	0	0	-3.51584	0
2.611	0	0	0	0	0	0	6.77536	-31.6313	-9.37911	0.100589	0	0.12261	0	0	0	0	-3.56679	0
2.612	0	0	0	0	0	0	6.64047	-31.9734	-9.24777	0.0972787	0	0.121101	0	0	0	0	-3.51874	0
2.613	0	0	0	0	0	0	6.90534	-31.8026	-9.20301	0.0956384	0	0.124754	0	0	0	0	-3.55622	0
2.614	0	0	0	0	0	0	6.77407	-32.493	-9.0689	0.0973566	0	0.120175	0	0	0	0	-3.49049	0
2.615	0	0	0	0	0	0	6.90586	-32.6691	-9.15906	0.0954823	0	0.12023	0	0	0	0	-3.50578	0
2.616	0	0	0	0	0	0	7.03921	-32.6721	-9.24143	0.0971032	0	0.122765	0	0	0	0	-3.52943	0
2.617	0	0	0	0	0	0	6.94718	-33.3621	-9.20007	0.0917474	0	0.12014	0	0	0	0	-3.47921	0
2.618	0	0	0	0	0	0	6.59374	-32.4913	-9.24563	0.0940365	0	0.119771	0	0	0	0	-3.48565	0
2.619	0	0	0	0	0	0	6.94827	-32.6712	-9.33448	0.0936607	0	0.121636	0	0	0	0	-3.52738	0
2.62	0	0	0	0	0	0	7.21712	-31.8079	-9.24767	0.0970504	0	0.122972	0	0	0	0	-3.59871	0
2.621	0	0	0	0	0	0	6.77022	-32.8396	-9.19941	0.0928315	0	0.121438	0	0	0	0	-3.48459	0
2.622	0	0	0	0	0	0	6.90448	-32.4938	-9.11373	0.0936406	0	0.120198	0	0	0	0	-3.51046	0
2.623	0	0	0	0	0	0	6.94692	-32.8428	-9.2905	0.0914277	0	0.11974	0	0	0	0	-3.51411	0
2.624	0	0	0	0	0	0	7.08359	-32.1507	-9.11349	0.0961966	0	0.122712	0	0	0	0	-3.55043	0
2.625	0	0	0	0	0	0	7.08159	-33.0197	-9.33393	0.0936911	0	0.119783	0	0	0	0	-3.52504	0
2.626	0	0	0	0	0	0	7.1243	-33.3649	-9.24625	0.0909442	0	0.119007	0	0	0	0	-3.50417	0
2.627	0	0	0	0	0	0	6.86063	-32.668	-9.19635	0.0955786	0	0.122106	0	0	0	0	-3.50396	0
2.628	0	0	0	0	0	0	6.85877	-32.6704	-9.37733	0.0931831	0	0.123487	0	0	0	0	-3.52076	0
2.629	0	0	0	0	0	0	6.68503	-32.1453	-9.11301	0.0973189	0	0.120905	0	0	0	0	-3.50207	0
2.63	0	0	0	0	0	0	6.9055	-32.5002	-9.50967	0.0965861	0	0.120722	0	0	0	0	-3.54796	0
2.631	0	0	0	0	0	0	6.81692	-32.3195	-9.11247	0.0954541	0	0.119646	0	0	0	0	-3.5089	0
2.632	0	0	0	0	0	0	7.03809	-32.3224	-9.07212	0.0939465	0	0.121375	0	0	0	0	-3.53171	0
2.633	0	0	0	0	0	0	7.08075	-33.192	-9.29133	0.0920451	0	0.118504	0	0	0	0	-3.51207	0
2.634	0	0	0	0	0	0	7.08303	-32.8452	-9.20417	0.0947594	0	0.118457	0	0	0	0	-3.52211	0
2.635	0	0	0	0	0	0	6.77203	-33.1867	-9.15556	0.0947674	0	0.118967	0	0	0	0	-3.46321	0
2.636	0	0	0	0	0	0	6.6824	-32.4912	-9.10954	0.094515	0	0.125033	0	0	0	0	-3.48341	0
2.637	0	0	0	0	0	0	7.04038	-31.8026	-9.03032	0.096674	0	0.12022	0	0	0	0	-3.55608	0
2.638	0	0	0	0	0	0	6.99225	-33.0153	-9.15835	0.0920654	0	0.118367	0	0	0	0	-3.49821	0
2.639	0	0	0	0	0	0	7.08143	-32.8443	-9.20241	0.0930107	0	0.120235	0	0	0	0	-3.5218	0
2.64	0	0	0	0	0	0	6.94913	-32.8399	-8.98312	0.0931781	0	0.119364	0	0	0	0	-3.48557	0
2.641	0	0	0	0	0	0	7.21549	-31.8116	-9.55427	0.0964396	0	0.125828	0	0	0	0	-3.62815	0
2.642	0	0	0	0	0	0	6.903	-32.839	-9.06529	0.0920988	0	0.121273	0	0	0	0	-3.48786	0
2.643	0	0	0	0	0	0	6.90314	-32.8425	-9.29141	0.0920637	0	0.119147	0	0	0	0	-3.509	0
